# xmcd
#
# Track frame offsets:
#   150
#   18825
#   35111
#   52327
#   66684
#   88158
#   109349
#   124760
#   140091
#   156273
#   177189
#   193664
#   206524
#   222287
#   237074
#   256701
#   271924
#   288151
#   298423
#   314977
#
# Disc length: 4452 seconds
#
# Revision: 0
# Processed by: cddbd v1.5.1PL0 Copyright (c) Steve Scherf et al.
# Submitted via: Media_Universe 3.0
#
DISCID=49116214
DTITLE=Ty Herndon - Steam and What Mattered Most
DYEAR=1900
DGENRE=Country
TTITLE0=Looking For The Good Life
TTITLE1=Steam
TTITLE2=Putting The Brakes On Time
TTITLE3=I Can Do It All
TTITLE4=No Mercy
TTITLE5=In A New York Second
TTITLE6=Thats What I Call Love
TTITLE7=Pray For Me
TTITLE8=A Love Like That
TTITLE9=You Can Leave Your Hat On
TTITLE10=What Mattered Most
TTITLE11=Pretty Good Thing
TTITLE12=Summer Was A Bummer
TTITLE13=You Dont Mess Around With Jim
TTITLE14=Heart Half Empty
TTITLE15=I Want My Goodbye Back
TTITLE16=You Just Get One
TTITLE17=In Your Face
TTITLE18=Love At 90 Miles An Hour
TTITLE19=Hat Full Of Rain
EXTD=
EXTT0=
EXTT1=
EXTT2=
EXTT3=
EXTT4=
EXTT5=
EXTT6=
EXTT7=
EXTT8=
EXTT9=
EXTT10=
EXTT11=
EXTT12=
EXTT13=
EXTT14=
EXTT15=
EXTT16=
EXTT17=
EXTT18=
EXTT19=
PLAYORDER=
